<mxfile host="app.diagrams.net" agent="Mozilla/5.0 (Windows NT 10.0; Win64; x64) AppleWebKit/537.36 (KHTML, like Gecko) Chrome/137.0.0.0 Safari/537.36 OPR/121.0.0.0 (Edition std-2)" version="28.2.3">
  <diagram name="Page-1" id="p00WBE6HMmxerrepUKE9">
    <mxGraphModel dx="741" dy="524" grid="1" gridSize="10" guides="1" tooltips="1" connect="1" arrows="1" fold="1" page="1" pageScale="1" pageWidth="850" pageHeight="1100" math="1" shadow="0">
      <root>
        <mxCell id="0" />
        <mxCell id="1" parent="0" />
        <mxCell id="aGa-bo8kWKCsY80C1ziJ-5" style="edgeStyle=orthogonalEdgeStyle;rounded=0;orthogonalLoop=1;jettySize=auto;html=1;exitX=0.5;exitY=1;exitDx=0;exitDy=0;entryX=0.5;entryY=0;entryDx=0;entryDy=0;" edge="1" parent="1" source="aGa-bo8kWKCsY80C1ziJ-1" target="aGa-bo8kWKCsY80C1ziJ-3">
          <mxGeometry relative="1" as="geometry" />
        </mxCell>
        <mxCell id="aGa-bo8kWKCsY80C1ziJ-1" value="Program Start" style="ellipse;whiteSpace=wrap;html=1;" vertex="1" parent="1">
          <mxGeometry x="330" y="70" width="120" height="50" as="geometry" />
        </mxCell>
        <mxCell id="aGa-bo8kWKCsY80C1ziJ-3" value="Display the standard format of a quadratic polynomial: $$ax^2 + bx + c = 0$$" style="shape=parallelogram;perimeter=parallelogramPerimeter;html=1;fixedSize=1;size=40;whiteSpace=wrap;" vertex="1" parent="1">
          <mxGeometry x="300" y="150" width="180" height="90" as="geometry" />
        </mxCell>
        <mxCell id="aGa-bo8kWKCsY80C1ziJ-6" value="&lt;div&gt;prompt user input:&lt;/div&gt;&lt;div&gt;&quot;what are the coefficients \(a, b, c\) ?&quot;&amp;nbsp;&lt;/div&gt;&lt;div&gt;store user inputs as variables.&lt;/div&gt;" style="shape=parallelogram;perimeter=parallelogramPerimeter;whiteSpace=wrap;html=1;fixedSize=1;" vertex="1" parent="1">
          <mxGeometry x="292.5" y="270" width="195" height="100" as="geometry" />
        </mxCell>
      </root>
    </mxGraphModel>
  </diagram>
</mxfile>
